# xmcd
#
# Track frame offsets:
#	150
#	17138
#	36080
#	50007
#	67314
#	84422
#	97721
#	112883
#	133990
#	148425
#	165413
#	184355
#	198282
#	215589
#	232697
#	245996
#	261158
#	282265
#
# Disc length: 3956 seconds
#
# Revision: 1
# Processed by: cddbd v1.5.2PL0 Copyright (c) Steve Scherf et al.
# Submitted via: audiograbber 1.83.01
#
DISCID=0f0f7212
DTITLE=Various Artist - PHMC1212
DYEAR=2012
DGENRE=Karaoke
TTITLE0=JT Hodges - Sleepy Little Town
TTITLE1=Sweetwater Rain - Starshine
TTITLE2=Alan Jackson - Gonna Come Back As A Country Song
TTITLE3=Tim Dugger - (I Called Her) Tennessee
TTITLE4=Craig Wayne Boyd feat David Fraiser - I Ain't No Quitter
TTITLE5=Chris Weaver Band - Standing In Line
TTITLE6=Bucky Covington - Hold A Woman
TTITLE7=The Black Lillies - Same Mistakes
TTITLE8=Borrowed Blue - Porch People
TTITLE9=JT Hodges - Sleepy Little Town (MPX)
TTITLE10=Sweetwater Rain - Starshine (MPX)
TTITLE11=Alan Jackson - Gonna Come Back As A Country Song (MPX)
TTITLE12=Tim Dugger - (I Called Her) Tennessee (MPX)
TTITLE13=Craig Wayne Boyd feat David Fraiser - I Ain't No Quitter (MPX)
TTITLE14=Chris Weaver Band - Standing In Line (MPX)
TTITLE15=Bucky Covington - Hold A Woman (MPX)
TTITLE16=The Black Lillies - Same Mistakes (MPX)
TTITLE17=Borrowed Blue - Porch People (MPX)
EXTD=
EXTT0=
EXTT1=
EXTT2=
EXTT3=
EXTT4=
EXTT5=
EXTT6=
EXTT7=
EXTT8=
EXTT9=
EXTT10=
EXTT11=
EXTT12=
EXTT13=
EXTT14=
EXTT15=
EXTT16=
EXTT17=
PLAYORDER=
